HIERARCHY
ROOT Hips
{
  OFFSET -5.9847 93.0773 -38.5288
  CHANNELS 6 Xposition Yposition Zposition Zrotation Xrotation Yrotation
  JOINT Spine
  {
    OFFSET 0 8 0
    CHANNELS 6 Xposition Yposition Zposition Zrotation Xrotation Yrotation
    JOINT Spine1
    {
      OFFSET 0 8 0
      CHANNELS 6 Xposition Yposition Zposition Zrotation Xrotation Yrotation
      JOINT Spine2
      {
        OFFSET 0 8 0
        CHANNELS 6 Xposition Yposition Zposition Zrotation Xrotation Yrotation
        JOINT Spine3
        {
          OFFSET 0 8 0
          CHANNELS 6 Xposition Yposition Zposition Zrotation Xrotation Yrotation
          JOINT Neck
          {
            OFFSET 0 17 0
            CHANNELS 6 Xposition Yposition Zposition Zrotation Xrotation Yrotation
            JOINT Head
            {
              OFFSET 0 10.8 0
              CHANNELS 6 Xposition Yposition Zposition Zrotation Xrotation Yrotation
              End Site
              {
                OFFSET 0 20.25 0
              }
            }
          }
          JOINT LeftShoulder
          {
            OFFSET 5 17 0
            CHANNELS 6 Xposition Yposition Zposition Zrotation Xrotation Yrotation
            JOINT LeftShoulder2
            {
              OFFSET 6.45 0 0
              CHANNELS 6 Xposition Yposition Zposition Zrotation Xrotation Yrotation
              JOINT LeftArm
              {
                OFFSET 6.45 0 0
                CHANNELS 6 Xposition Yposition Zposition Zrotation Xrotation Yrotation
                JOINT LeftForeArm
                {
                  OFFSET 0 -32.4 -2
                  CHANNELS 6 Xposition Yposition Zposition Zrotation Xrotation Yrotation
                  JOINT LeftHand
                  {
                    OFFSET 0 -25.65 2
                    CHANNELS 6 Xposition Yposition Zposition Zrotation Xrotation Yrotation
                    JOINT LeftHandThumb1
                    {
                      OFFSET -0.5 -1.5 2.65
                      CHANNELS 6 Xposition Yposition Zposition Zrotation Xrotation Yrotation
                      JOINT LeftHandThumb2
                      {
                        OFFSET 0 -3.8 3.7
                        CHANNELS 6 Xposition Yposition Zposition Zrotation Xrotation Yrotation
                        JOINT LeftHandThumb3
                        {
                          OFFSET 0 -3 2.7
                          CHANNELS 6 Xposition Yposition Zposition Zrotation Xrotation Yrotation
                          End Site
                          {
                            OFFSET 0 -2.3 1.8
                          }
                        }
                      }
                    }
                    JOINT LeftHandIndex
                    {
                      OFFSET 0 -1.9 1.6
                      CHANNELS 6 Xposition Yposition Zposition Zrotation Xrotation Yrotation
                      JOINT LeftHandIndex1
                      {
                        OFFSET 0 -8.3 1.9
                        CHANNELS 6 Xposition Yposition Zposition Zrotation Xrotation Yrotation
                        JOINT LeftHandIndex2
                        {
                          OFFSET 0 -4.5 0
                          CHANNELS 6 Xposition Yposition Zposition Zrotation Xrotation Yrotation
                          JOINT LeftHandIndex3
                          {
                            OFFSET 0 -3.4 0
                            CHANNELS 6 Xposition Yposition Zposition Zrotation Xrotation Yrotation
                            End Site
                            {
                              OFFSET 0 -2.6 0
                            }
                          }
                        }
                      }
                    }
                    JOINT LeftHandMiddle
                    {
                      OFFSET -0.25 -2.2 0.4
                      CHANNELS 6 Xposition Yposition Zposition Zrotation Xrotation Yrotation
                      JOINT LeftHandMiddle1
                      {
                        OFFSET 0 -8.3 1
                        CHANNELS 6 Xposition Yposition Zposition Zrotation Xrotation Yrotation
                        JOINT LeftHandMiddle2
                        {
                          OFFSET 0 -4.65 0
                          CHANNELS 6 Xposition Yposition Zposition Zrotation Xrotation Yrotation
                          JOINT LeftHandMiddle3
                          {
                            OFFSET 0 -3.3 0
                            CHANNELS 6 Xposition Yposition Zposition Zrotation Xrotation Yrotation
                            End Site
                            {
                              OFFSET 0 -2.7 0
                            }
                          }
                        }
                      }
                    }
                    JOINT LeftHandRing
                    {
                      OFFSET -0.5 -2.15 -0.8
                      CHANNELS 6 Xposition Yposition Zposition Zrotation Xrotation Yrotation
                      JOINT LeftHandRing1
                      {
                        OFFSET 0 -7.75 -0.2
                        CHANNELS 6 Xposition Yposition Zposition Zrotation Xrotation Yrotation
                        JOINT LeftHandRing2
                        {
                          OFFSET 0 -3.8 0
                          CHANNELS 6 Xposition Yposition Zposition Zrotation Xrotation Yrotation
                          JOINT LeftHandRing3
                          {
                            OFFSET 0 -3.4 0
                            CHANNELS 6 Xposition Yposition Zposition Zrotation Xrotation Yrotation
                            End Site
                            {
                              OFFSET 0 -2.6 0
                            }
                          }
                        }
                      }
                    }
                    JOINT LeftHandPinky
                    {
                      OFFSET -0.75 -1.75 -1.85
                      CHANNELS 6 Xposition Yposition Zposition Zrotation Xrotation Yrotation
                      JOINT LeftHandPinky1
                      {
                        OFFSET 0 -7.15 -1
                        CHANNELS 6 Xposition Yposition Zposition Zrotation Xrotation Yrotation
                        JOINT LeftHandPinky2
                        {
                          OFFSET 0 -3 0
                          CHANNELS 6 Xposition Yposition Zposition Zrotation Xrotation Yrotation
                          JOINT LeftHandPinky3
                          {
                            OFFSET 0 -2.35 0
                            CHANNELS 6 Xposition Yposition Zposition Zrotation Xrotation Yrotation
                            End Site
                            {
                              OFFSET 0 -2.1 0
                            }
                          }
                        }
                      }
                    }
                  }
                }
              }
            }
          }
          JOINT RightShoulder
          {
            OFFSET -5 17 0
            CHANNELS 6 Xposition Yposition Zposition Zrotation Xrotation Yrotation
            JOINT RightShoulder2
            {
              OFFSET -6.45 0 0
              CHANNELS 6 Xposition Yposition Zposition Zrotation Xrotation Yrotation
              JOINT RightArm
              {
                OFFSET -6.45 0 0
                CHANNELS 6 Xposition Yposition Zposition Zrotation Xrotation Yrotation
                JOINT RightForeArm
                {
                  OFFSET 0 -32.4 -2
                  CHANNELS 6 Xposition Yposition Zposition Zrotation Xrotation Yrotation
                  JOINT RightHand
                  {
                    OFFSET 0 -25.65 2
                    CHANNELS 6 Xposition Yposition Zposition Zrotation Xrotation Yrotation
                    JOINT RightHandThumb1
                    {
                      OFFSET 0.5 -1.5 2.65
                      CHANNELS 6 Xposition Yposition Zposition Zrotation Xrotation Yrotation
                      JOINT RightHandThumb2
                      {
                        OFFSET 0 -3.8 3.7
                        CHANNELS 6 Xposition Yposition Zposition Zrotation Xrotation Yrotation
                        JOINT RightHandThumb3
                        {
                          OFFSET 0 -3 2.7
                          CHANNELS 6 Xposition Yposition Zposition Zrotation Xrotation Yrotation
                          End Site
                          {
                            OFFSET 0 -2.3 1.8
                          }
                        }
                      }
                    }
                    JOINT RightHandIndex
                    {
                      OFFSET 0 -1.9 1.6
                      CHANNELS 6 Xposition Yposition Zposition Zrotation Xrotation Yrotation
                      JOINT RightHandIndex1
                      {
                        OFFSET 0 -8.3 1.9
                        CHANNELS 6 Xposition Yposition Zposition Zrotation Xrotation Yrotation
                        JOINT RightHandIndex2
                        {
                          OFFSET 0 -4.5 0
                          CHANNELS 6 Xposition Yposition Zposition Zrotation Xrotation Yrotation
                          JOINT RightHandIndex3
                          {
                            OFFSET 0 -3.4 0
                            CHANNELS 6 Xposition Yposition Zposition Zrotation Xrotation Yrotation
                            End Site
                            {
                              OFFSET 0 -2.6 0
                            }
                          }
                        }
                      }
                    }
                    JOINT RightHandMiddle
                    {
                      OFFSET 0.25 -2.2 0.4
                      CHANNELS 6 Xposition Yposition Zposition Zrotation Xrotation Yrotation
                      JOINT RightHandMiddle1
                      {
                        OFFSET 0 -8.3 1
                        CHANNELS 6 Xposition Yposition Zposition Zrotation Xrotation Yrotation
                        JOINT RightHandMiddle2
                        {
                          OFFSET 0 -4.65 0
                          CHANNELS 6 Xposition Yposition Zposition Zrotation Xrotation Yrotation
                          JOINT RightHandMiddle3
                          {
                            OFFSET 0 -3.3 0
                            CHANNELS 6 Xposition Yposition Zposition Zrotation Xrotation Yrotation
                            End Site
                            {
                              OFFSET 0 -2.7 0
                            }
                          }
                        }
                      }
                    }
                    JOINT RightHandRing
                    {
                      OFFSET 0.5 -2.15 -0.8
                      CHANNELS 6 Xposition Yposition Zposition Zrotation Xrotation Yrotation
                      JOINT RightHandRing1
                      {
                        OFFSET 0 -7.75 -0.2
                        CHANNELS 6 Xposition Yposition Zposition Zrotation Xrotation Yrotation
                        JOINT RightHandRing2
                        {
                          OFFSET 0 -3.8 0
                          CHANNELS 6 Xposition Yposition Zposition Zrotation Xrotation Yrotation
                          JOINT RightHandRing3
                          {
                            OFFSET 0 -3.4 0
                            CHANNELS 6 Xposition Yposition Zposition Zrotation Xrotation Yrotation
                            End Site
                            {
                              OFFSET 0 -2.6 0
                            }
                          }
                        }
                      }
                    }
                    JOINT RightHandPinky
                    {
                      OFFSET 0.75 -1.75 -1.85
                      CHANNELS 6 Xposition Yposition Zposition Zrotation Xrotation Yrotation
                      JOINT RightHandPinky1
                      {
                        OFFSET 0 -7.15 -1
                        CHANNELS 6 Xposition Yposition Zposition Zrotation Xrotation Yrotation
                        JOINT RightHandPinky2
                        {
                          OFFSET 0 -3 0
                          CHANNELS 6 Xposition Yposition Zposition Zrotation Xrotation Yrotation
                          JOINT RightHandPinky3
                          {
                            OFFSET 0 -2.35 0
                            CHANNELS 6 Xposition Yposition Zposition Zrotation Xrotation Yrotation
                            End Site
                            {
                              OFFSET 0 -2.1 0
                            }
                          }
                        }
                      }
                    }
                  }
                }
              }
            }
          }
        }
      }
    }
  }
  JOINT LeftUpLeg
  {
    OFFSET 8 0 0
    CHANNELS 6 Xposition Yposition Zposition Zrotation Xrotation Yrotation
    JOINT LeftLeg
    {
      OFFSET 0 -45 -1
      CHANNELS 6 Xposition Yposition Zposition Zrotation Xrotation Yrotation
      JOINT LeftFoot
      {
        OFFSET 0 -41 -2
        CHANNELS 6 Xposition Yposition Zposition Zrotation Xrotation Yrotation
        JOINT LeftToeBase
        {
          OFFSET 0 -7.5 12.5
          CHANNELS 6 Xposition Yposition Zposition Zrotation Xrotation Yrotation
          JOINT LeftFootToe
          {
            OFFSET 0 0 4
            CHANNELS 6 Xposition Yposition Zposition Zrotation Xrotation Yrotation
            End Site
            {
              OFFSET 0 0 0
            }
          }
        }
      }
    }
  }
  JOINT RightUpLeg
  {
    OFFSET -8 0 0
    CHANNELS 6 Xposition Yposition Zposition Zrotation Xrotation Yrotation
    JOINT RightLeg
    {
      OFFSET 0 -45 -1
      CHANNELS 6 Xposition Yposition Zposition Zrotation Xrotation Yrotation
      JOINT RightFoot
      {
        OFFSET 0 -41 -2
        CHANNELS 6 Xposition Yposition Zposition Zrotation Xrotation Yrotation
        JOINT RightToeBase
        {
          OFFSET 0 -7.5 12.5
          CHANNELS 6 Xposition Yposition Zposition Zrotation Xrotation Yrotation
          JOINT RightFootToe
          {
            OFFSET 0 0 4
            CHANNELS 6 Xposition Yposition Zposition Zrotation Xrotation Yrotation
            End Site
            {
              OFFSET 0 0 0
            }
          }
        }
      }
    }
  }
}
MOTION
Frames:	3
Frame Time:	0.0111111
-6.11682 93.0773 -38.4933 0.0380988 -0.0196299 -29.825 0 8 0 -0.405368 -0.180414 6.1571 -3.55271e-15 8 0 0.18357 0.0937219 -11.8911 0 8 0 0.100671 0.0596023 -5.96591 0 8 0 0.100099 0.0591898 -5.93394 0 17 3.55271e-15 -0.342238 -0.249803 -2.03594 0 10.8 -3.55271e-15 -0.576248 -0.568813 -4.75875 5 17 0 0.0545405 1.42472 0.524809 6.45 2.84217e-14 -3.55271e-15 -0.27864 0.489705 7.39156 6.45 0 0 0.784578 -5.92194 -7.55525 0 -32.4 -2 -0.170126 -3.85232 3.60719 0 -25.65 2 11.3999 -3.81992 -9.30047 -0.5 -1.5 2.65 -9.75407 -12.9321 -0.916445 -1.77636e-15 -3.8 3.7 0.114283 24.4392 -0.0159743 -1.77636e-15 -3 2.7 1.28671e-15 18.9415 -1.00879e-14 1.77636e-15 -1.9 1.6 3.18055e-15 -3.18055e-15 -3.18055e-15 1.77636e-15 -8.3 1.9 -0.448346 0.378247 3.18062e-15 0 -4.5 0 -22.13 1.98785e-16 9.54166e-15 0 -3.4 0 -17.2648 0 -0 -0.25 -2.2 0.4 3.18055e-15 -3.18055e-15 -3.18055e-15 -1.77636e-15 -8.3 1 -4.71607 -0.760831 0.0800757 0 -4.65 0 -8.28788 -7.95139e-16 -0 0 -3.3 -1.77636e-15 -7.44475 -1.49089e-16 2.22639e-14 -0.5 -2.15 -0.8 3.18055e-15 -3.18055e-15 -3.18055e-15 0 -7.75 -0.2 -12.8433 -2.9609 0.00747054 0 -3.8 0 4.41391e-32 -7.95139e-16 3.18055e-15 1.77636e-15 -3.4 1.77636e-15 7.95139e-16 -2.38542e-15 -0 -0.75 -1.75 -1.85 3.18055e-15 -3.18055e-15 -3.18055e-15 1.77636e-15 -7.15 -1 -16.9646 -4.22919 -0.169092 0 -3 -3.55271e-15 7.95139e-16 -1.59028e-15 3.18055e-15 -3.55271e-15 -2.35 0 -1.59028e-15 -7.95139e-16 -6.36111e-15 -5 17 0 0.594627 1.19237 9.51461 -6.45 0 3.55271e-15 3.08682 -0.913147 -8.05589 -6.45 0 0 -4.53626 -1.68716 5.1792 0 -32.4 -2 2.22485 -4.41045 -9.92758 -7.10543e-15 -25.65 2 -16.5123 -0.477585 4.39789 0.5 -1.5 2.65 3.25647 -5.14132 -1.08697 0 -3.8 3.7 -0.0427356 6.8768 -0 -1.42109e-14 -3 2.7 -7.95139e-16 16.5699 -0 1.42109e-14 -1.9 1.6 1.59028e-15 -2.38542e-15 3.18055e-15 0 -8.3 1.9 10.325 -3.74434 0.276943 0 -4.5 -3.55271e-15 0.068497 0 6.36111e-15 0 -3.4 -7.10543e-15 0.0684344 -1.59028e-15 3.18055e-15 0.25 -2.2 0.4 1.59028e-15 -2.38542e-15 3.18055e-15 0 -8.3 1 11.6415 -3.18518 0.188348 -7.10543e-15 -4.65 7.10543e-15 2.18442 7.95139e-16 -0 0 -3.3 0 2.11832 0 -3.18055e-15 0.5 -2.15 -0.8 1.59028e-15 -2.38542e-15 3.18055e-15 0 -7.75 -0.2 13.7978 -1.4463 -0.08712 0 -3.8 -3.55271e-15 0.245506 1.19271e-15 -6.36111e-15 0 -3.4 -7.10543e-15 0.244679 1.19271e-15 -0 0.75 -1.75 -1.85 1.59028e-15 -2.38542e-15 3.18055e-15 0 -7.15 -1 15.0953 -0.779197 -0.234525 -7.10543e-15 -3 -3.55271e-15 -1.32417e-31 -7.95139e-16 -9.54166e-15 0 -2.35 0 -3.97569e-16 0 -1.27222e-14 8 0 0 2.02529 -3.20971 -21.8089 0 -45 -1 -0.0109874 6.79871 0.0928135 7.10543e-15 -41 -2 -3.12608 -4.57515 13.476 -1.77636e-15 -7.5 12.5 -1.55301e-18 1.55301e-18 -6.36111e-15 0 1.73472e-18 4 0.158764 0.042521 -7.0315 -8 0 3.55271e-15 -2.72591 1.41079 -17.9895 0 -45 -1 -0.00264509 5.34777 0.503142 0 -41 -2 2.95798 -5.88162 -8.29774 0 -7.5 12.5 3.88251e-19 0 -0 0 0 4 -2.00054 -0.949106 7.26141 
-6.1165 93.0773 -38.4937 0.0378305 -0.0196434 -29.8248 0 8 0 -0.404139 -0.180143 6.15917 0 8 0 0.183208 0.0935992 -11.8909 0 8 -3.55271e-15 0.100667 0.0595665 -5.96588 0 8 0 0.100095 0.0591519 -5.93392 0 17 0 -0.342138 -0.251332 -2.0368 0 10.8 3.55271e-15 -0.573944 -0.571776 -4.76152 5 17 0 0.0547429 1.42438 0.519576 6.45 -2.84217e-14 0 -0.278948 0.489839 7.39097 6.45 2.84217e-14 3.55271e-15 0.785018 -5.92204 -7.55041 1.77636e-15 -32.4 -2 -0.172126 -3.84734 3.60655 0 -25.65 2 11.4001 -3.82009 -9.29975 -0.5 -1.5 2.65 -9.74944 -12.9356 -0.918217 -1.77636e-15 -3.8 3.7 0.114282 24.4352 -0.0159738 1.77636e-15 -3 2.7 2.78299e-15 18.9426 -0 0 -1.9 1.6 -1.59028e-15 -1.59028e-15 -3.18055e-15 3.55271e-15 -8.3 1.9 -0.447622 0.37634 -6.36125e-15 0 -4.5 -1.77636e-15 -22.1298 -3.37934e-15 -0 0 -3.4 1.77636e-15 -17.2649 -6.36111e-15 1.59028e-14 -0.25 -2.2 0.4 -1.59028e-15 -1.59028e-15 -3.18055e-15 -1.77636e-15 -8.3 1 -4.71497 -0.763657 0.0801143 0 -4.65 0 -8.28913 2.38542e-15 -9.54166e-15 0 -3.3 0 -7.44612 1.68967e-15 -6.36111e-15 -0.5 -2.15 -0.8 -1.59028e-15 -1.59028e-15 -3.18055e-15 7.10543e-15 -7.75 -0.2 -12.8426 -2.96406 0.00746205 0 -3.8 1.77636e-15 -2.64834e-31 2.38542e-15 6.36111e-15 0 -3.4 -1.77636e-15 1.59028e-15 3.18055e-15 6.36111e-15 -0.75 -1.75 -1.85 -1.59028e-15 -1.59028e-15 -3.18055e-15 -1.77636e-15 -7.15 -1 -16.9643 -4.23277 -0.169342 3.55271e-15 -3 0 -1.59028e-15 0 -6.36111e-15 -3.55271e-15 -2.35 -1.77636e-15 1.54487e-31 2.78299e-15 -3.18055e-15 -5 17 -3.55271e-15 0.594463 1.19201 9.50869 -6.45 2.84217e-14 -3.55271e-15 3.08692 -0.912843 -8.05583 -6.45 0 7.10543e-15 -4.53689 -1.68701 5.18089 0 -32.4 -2 2.22281 -4.41167 -9.92972 0 -25.65 2 -16.5108 -0.475635 4.39715 0.5 -1.5 2.65 3.25582 -5.14114 -1.08617 0 -3.8 3.7 -0.0427356 6.87568 -3.20359e-15 1.42109e-14 -3 2.7 3.18055e-15 16.5709 -0 0 -1.9 1.6 1.76556e-31 -1.59028e-15 6.36111e-15 0 -8.3 1.9 10.3242 -3.74267 0.276977 0 -4.5 7.10543e-15 0.0678839 -1.39149e-15 -0 -7.10543e-15 -3.4 -7.10543e-15 0.0678226 5.96354e-16 6.36111e-15 0.25 -2.2 0.4 1.76556e-31 -1.59028e-15 6.36111e-15 0 -8.3 1 11.6408 -3.18414 0.188368 0 -4.65 3.55271e-15 2.18415 -1.59028e-15 -0 0 -3.3 0 2.11857 -2.38542e-15 9.54166e-15 0.5 -2.15 -0.8 1.76556e-31 -1.59028e-15 6.36111e-15 0 -7.75 -0.2 13.7972 -1.44621 -0.0871092 7.10543e-15 -3.8 3.55271e-15 0.24521 1.98785e-15 -3.18055e-15 7.10543e-15 -3.4 -7.10543e-15 0.244385 3.97569e-16 -6.36111e-15 0.75 -1.75 -1.85 1.76556e-31 -1.59028e-15 6.36111e-15 0 -7.15 -1 15.0952 -0.778208 -0.234554 7.10543e-15 -3 -3.55271e-15 -3.97569e-16 -1.59028e-15 -3.18055e-15 -7.10543e-15 -2.35 -3.55271e-15 -3.97569e-16 -3.97569e-16 -3.18055e-15 8 1.42109e-14 3.55271e-15 2.02512 -3.20987 -21.812 3.55271e-15 -45 -1 -0.0109873 6.79864 0.0928135 0 -41 -2 -3.12606 -4.57507 13.4769 -3.55271e-15 -7.5 12.5 0 1.55301e-18 -0 0 0 4 0.158764 0.042521 -7.0315 -8 1.42109e-14 3.55271e-15 -2.72584 1.41075 -17.99 0 -45 -1 -0.00264594 5.34747 0.503179 -7.10543e-15 -41 -2 2.95797 -5.88127 -8.29758 0 -7.5 12.5 -2.15523e-35 -3.88251e-19 -3.18055e-15 7.10543e-15 0 4 -2.00057 -0.948993 7.26141 
-6.11619 93.0773 -38.4941 0.0375622 -0.0196569 -29.8245 -3.55271e-15 8 -3.55271e-15 -0.402932 -0.179884 6.16015 0 8 -7.10543e-15 0.182915 0.0934782 -11.8908 0 8 -3.55271e-15 0.100663 0.0595311 -5.96586 -7.10543e-15 8 -3.55271e-15 0.100091 0.0591143 -5.93389 0 17 0 -0.342048 -0.252835 -2.03784 0 10.8 7.10543e-15 -0.572243 -0.573523 -4.76231 5 17 -3.55271e-15 0.0549109 1.42404 0.515687 6.45 -2.84217e-14 0 -0.279257 0.489978 7.39039 6.45 0 0 0.78546 -5.92213 -7.54543 -1.77636e-15 -32.4 -2 -0.175146 -3.84137 3.60613 0 -25.65 2 11.4002 -3.82069 -9.29896 -0.5 -1.5 2.65 -9.74257 -12.9394 -0.921072 0 -3.8 3.7 0.11428 24.4284 -0.0159729 -1.77636e-15 -3 2.7 1.78568e-15 18.9432 -6.72535e-15 0 -1.9 1.6 1.59028e-15 3.18055e-15 -0 0 -8.3 1.9 -0.44687 0.374396 -6.36125e-15 -5.32907e-15 -4.5 1.77636e-15 -22.1295 5.76476e-15 6.36111e-15 0 -3.4 0 -17.264 1.59028e-15 6.36111e-15 -0.25 -2.2 0.4 1.59028e-15 3.18055e-15 -0 1.77636e-15 -8.3 1 -4.7139 -0.766121 0.080153 1.77636e-15 -4.65 1.77636e-15 -8.29 0 3.18055e-15 0 -3.3 0 -7.44669 -2.03754e-15 -0 -0.5 -2.15 -0.8 1.59028e-15 3.18055e-15 -0 3.55271e-15 -7.75 -0.2 -12.8419 -2.9671 0.0074522 -1.77636e-15 -3.8 0 7.95139e-16 -2.38542e-15 -1.27222e-14 0 -3.4 0 -1.59028e-15 -3.97569e-15 -0 -0.75 -1.75 -1.85 1.59028e-15 3.18055e-15 -0 -1.77636e-15 -7.15 -1 -16.9641 -4.23675 -0.169592 3.55271e-15 -3 0 7.95139e-16 1.59028e-15 -0 0 -2.35 1.77636e-15 -1.59028e-15 1.19271e-15 3.18055e-15 -5 17 0 0.594273 1.19164 9.50406 -6.45 2.84217e-14 0 3.08702 -0.912536 -8.05579 -6.45 2.84217e-14 -3.55271e-15 -4.53752 -1.68685 5.18262 0 -32.4 -2 2.22205 -4.41273 -9.93182 0 -25.65 2 -16.5094 -0.4717 4.39637 0.5 -1.5 2.65 3.25483 -5.14097 -1.08312 0 -3.8 3.7 -0.0427356 6.87443 3.20359e-15 0 -3 2.7 -1.89294e-15 16.572 6.63679e-15 0 -1.9 1.6 1.59028e-15 -7.95139e-16 -0 -1.42109e-14 -8.3 1.9 10.3233 -3.74091 0.277011 0 -4.5 0 0.0673389 -1.59028e-15 3.18055e-15 0 -3.4 -7.10543e-15 0.0672786 7.95139e-16 -0 0.25 -2.2 0.4 1.59028e-15 -7.95139e-16 -0 0 -8.3 1 11.6399 -3.1831 0.188388 0 -4.65 0 2.18371 7.95139e-16 -0 0 -3.3 -3.55271e-15 2.11882 1.59028e-15 6.36111e-15 0.5 -2.15 -0.8 1.59028e-15 -7.95139e-16 -0 0 -7.75 -0.2 13.7965 -1.44607 -0.0870984 7.10543e-15 -3.8 3.55271e-15 0.244921 -1.59028e-15 -3.18055e-15 7.10543e-15 -3.4 -3.55271e-15 0.244098 -1.19271e-15 -9.54166e-15 0.75 -1.75 -1.85 1.59028e-15 -7.95139e-16 -0 -1.42109e-14 -7.15 -1 15.0951 -0.777387 -0.234584 0 -3 7.10543e-15 3.97569e-16 1.19271e-15 6.36111e-15 1.42109e-14 -2.35 3.55271e-15 -3.97569e-16 -3.97569e-16 -0 8 0 3.55271e-15 2.02495 -3.21002 -21.8152 -3.55271e-15 -45 -1 -0.0109872 6.79857 0.0928135 0 -41 -2 -3.12604 -4.57499 13.4778 0 -7.5 12.5 8.62091e-35 7.76503e-19 -6.36111e-15 0 1.73472e-18 4 0.158764 0.042521 -7.0315 -8 -1.42109e-14 -3.55271e-15 -2.72577 1.41071 -17.9903 0 -45 -1 -0.00264672 5.34717 0.503216 -7.10543e-15 -41 -2 2.95795 -5.88091 -8.29743 0 -7.5 12.5 -3.88251e-19 0 -0 0 1.38778e-17 4 -2.0006 -0.948882 7.26141 
